<?xml version="1.0" encoding="utf-8"?>
<!-- Generator: Adobe Illustrator 16.0.0, SVG Export Plug-In . SVG Version: 6.00 Build 0)  -->
<!DOCTYPE svg PUBLIC "-//W3C//DTD SVG 1.0//EN" "http://www.w3.org/TR/2001/REC-SVG-20010904/DTD/svg10.dtd">
<svg version="1.0" id="Layer_1" xmlns="http://www.w3.org/2000/svg" xmlns:xlink="http://www.w3.org/1999/xlink" x="0px" y="0px"
	 width="800px" height="800px" viewBox="0 0 800 800" enable-background="new 0 0 800 800" xml:space="preserve">
<g id="Mphasis_Logo_Horizontal_Colour">
	<g id="Group" transform="translate(68.000000, 92.000000)">
		<g transform="translate(43.000000, 5.000000)">
			<g transform="translate(0.000000, 34.453125)">
				<polygon id="Path" points="106.242,332.157 106.242,328.228 135.05,328.228 135.05,332.157 122.852,332.157 122.852,363.547 
					118.472,363.547 118.472,332.157 				"/>
				<path id="Path_1_" d="M154.121,328.265v14.479c2.153-3.297,5.524-4.396,8.725-4.43c7.11,0,10.58,4.629,10.58,11.517v13.716
					h-4.144v-13.684c0-4.891-2.561-7.688-7.143-7.688c-4.616,0-7.986,3.597-7.986,8.122v13.213h-4.177v-35.346h4.145V328.265z"/>
				<path id="Shape" d="M213.522,359.586c-2.562,2.962-6.942,4.423-10.885,4.423c-7.817,0-13.274-5.089-13.274-13.013
					c0-7.521,5.458-12.912,13.074-12.912c7.716,0,13.577,4.691,12.634,14.645h-21.461c0.471,4.591,4.278,7.453,9.13,7.453
					c2.864,0,6.336-1.097,8.018-3.125l2.832,2.529H213.522z M211.095,349.267c-0.201-4.858-3.571-7.457-8.525-7.457
					c-4.38,0-8.221,2.631-8.928,7.425h17.488v0.032H211.095z"/>
				<polygon id="Path_2_" points="258.435,328.228 280.336,355.289 280.336,328.228 284.716,328.228 284.716,363.58 281.648,363.58 
					259.681,336.618 259.681,363.58 255.301,363.58 255.301,328.228 				"/>
				<path id="Shape_1_" d="M325.518,359.586c-2.562,2.962-6.939,4.423-10.883,4.423c-7.817,0-13.276-5.089-13.276-13.013
					c0-7.521,5.459-12.912,13.073-12.912c7.72,0,13.582,4.691,12.64,14.645h-21.464c0.471,4.591,4.275,7.453,9.13,7.453
					c2.866,0,6.333-1.097,8.016-3.125l2.833,2.529H325.518z M323.058,349.267c-0.203-4.858-3.569-7.457-8.523-7.457
					c-4.384,0-8.22,2.631-8.927,7.425h17.487v0.032H323.058z"/>
				<polygon id="Path_3_" points="348.669,350.797 340.172,338.782 340.172,338.615 344.822,338.615 351.359,348.069 
					357.794,338.615 362.583,338.615 362.583,338.782 353.989,350.797 363.221,363.478 363.221,363.58 358.404,363.58 
					351.294,353.492 344.151,363.58 339.501,363.58 339.501,363.478 				"/>
				<path id="Path_4_" d="M385.189,338.68h7.817v3.527h-7.882v13.185c0,2.927,0.975,4.79,3.975,4.79c1.109,0,2.39-0.366,3.537-0.897
					l1.21,3.431c-1.682,0.763-3.23,1.164-4.918,1.197c-5.423,0.097-7.983-3.027-7.983-8.521v-13.185h-5.058v-3.527h5.058v-6.855
					l4.18-0.467v7.322H385.189z"/>
				<path id="Shape_2_" d="M448.402,328.228l16.031,35.353h-4.779l-3.542-7.79h-20.451l-3.467,7.79h-4.854l16.041-35.353H448.402z
					 M445.905,332.656l-8.492,19.074h16.979L445.905,332.656z"/>
				<path id="Shape_3_" d="M479.365,338.713h3.976l0.199,4.793c1.987-3.327,5.728-5.256,9.703-5.256
					c7.244,0.13,12.569,5.191,12.569,12.88c0,7.887-5.256,12.981-12.837,12.981c-3.569,0-7.545-1.531-9.532-5.059v16.24h-4.078
					V338.713z M501.634,351.23c0-5.592-3.739-8.921-8.895-8.921c-5.257,0-8.825,3.827-8.825,8.921c0,5.091,3.735,8.918,8.825,8.988
					C497.792,360.219,501.634,356.853,501.634,351.23z"/>
				<path id="Shape_4_" d="M522.117,338.713h3.976l0.204,4.793c1.988-3.327,5.728-5.256,9.708-5.256
					c7.239,0.13,12.563,5.191,12.563,12.88c0,7.887-5.254,12.981-12.837,12.981c-3.573,0-7.581-1.531-9.568-5.059v16.24h-4.078
					v-36.58H522.117z M544.39,351.23c0-5.592-3.738-8.921-8.894-8.921c-5.256,0-8.83,3.827-8.83,8.921
					c0,5.091,3.744,8.918,8.83,8.988C540.581,360.219,544.39,356.853,544.39,351.23z"/>
				<polygon id="Path_5_" points="569.391,363.547 565.212,363.547 565.212,328.196 569.391,328.196 				"/>
				<path id="Shape_5_" d="M592.474,331.058c0,3.596-5.525,3.596-5.525-0.065C586.948,327.434,592.474,327.434,592.474,331.058z
					 M587.586,363.547h4.18v-25.033h-4.18V363.547z"/>
				<path id="Shape_6_" d="M632.229,359.586c-2.561,2.962-6.939,4.423-10.884,4.423c-7.816,0-13.271-5.089-13.271-13.013
					c0-7.521,5.454-12.912,13.073-12.912c7.71,0,13.609,4.691,12.63,14.645h-21.459c0.471,4.591,4.279,7.453,9.129,7.453
					c2.862,0,6.333-1.097,8.021-3.125l2.792,2.529H632.229z M629.77,349.267c-0.198-4.858-3.574-7.457-8.523-7.457
					c-4.379,0-8.221,2.631-8.927,7.425h17.482v0.032H629.77z"/>
				<path id="Shape_7_" d="M674.616,328.164v35.346h-3.939l-0.202-4.558c-2.059,3.429-5.732,5.057-9.468,5.057
					c-7.213,0-12.773-4.692-12.773-12.911c0-8.391,5.561-12.916,12.736-12.916c3.573,0,7.646,1.632,9.436,4.992v-14.946h4.146
					L674.616,328.164z M661.339,342.009c-4.919,0-8.895,3.194-8.895,9.019c0,5.761,3.976,9.024,8.895,9.024
					c5.02,0,8.932-3.628,8.932-9.089c0-5.357-3.975-8.986-8.996-8.986h0.064V342.009z"/>
			</g>
			<g>
				<path id="Path_6_" d="M195.461,224.852l-34.905,47.929h-3.504l-34.468-47.929v77.786H106.14V201.254c6.47,0,12.465,0,19.072,0
					l33.86,47.498l33.729-47.498h19.069v101.383h-16.408V224.852z"/>
				<path id="Shape_8_" d="M234.311,335.656V231.075h14.218l0.876,11.583c5.559-8.687,15.835-13.046,25.506-13.046
					c21.565,0.132,36.524,15.644,36.524,37.211c0,21.6-14.086,37.212-36.524,37.212c-8.795,0-20.082-3.194-25.506-12.015v43.602
					h-15.094V335.656z M296.338,266.857c0-13.481-9.096-22.733-22.876-22.733c-13.915,0-22.743,9.985-22.743,22.733
					c0,12.747,9.535,22.732,22.743,22.732C286.669,289.589,296.338,280.171,296.338,266.857z"/>
				<path id="Path_7_" d="M342.705,201.087v40.573c6.296-8.687,14.82-11.583,23.446-11.583c20.388,0,29.785,13.48,29.785,33.883
					v38.545h-15.093v-38.411c0-13.48-7.046-20.137-18.195-20.137c-11.725,0-19.943,9.553-19.943,21.302v37.211h-15.098V201.087
					H342.705z"/>
				<path id="Shape_9_" d="M473.499,231.075h14.659c0,23.767,0,47.665,0,71.43h-14.387l-0.744-11.585
					c-4.85,9.121-15.972,13.481-24.931,13.481c-21.126,0.134-37.099-13.314-37.099-37.677c0-23.9,16.578-37.214,37.404-37.214
					c10.271,0,20.076,4.794,24.625,12.881L473.499,231.075z M426.129,266.725c0,14.777,10.545,23.764,23.447,23.764
					c31.236,0,31.236-47.364,0-47.364C436.706,243.093,426.129,252.079,426.129,266.725z"/>
				<path id="Path_8_" d="M554.902,248.617c-5.728-5.227-11.862-6.657-19.068-6.657c-9.232-0.134-15.398,2.896-15.398,8.554
					c0.133,5.924,6.472,8.254,15.698,9.119c13.342,1.166,30.797,4.062,30.664,22.467c-0.135,13.313-12.028,22.601-30.793,22.601
					c-11.729,0-23.456-2.595-32.989-13.18l7.914-10.586c6.74,7.39,16.851,10.42,25.375,10.586c7.18,0,15.261-2.598,15.398-9.287
					c0.134-6.391-6-8.853-16.716-9.851c-13.642-1.299-29.309-5.659-29.479-21.436c0-15.778,16.577-21.735,30.053-21.735
					c11.155,0,19.814,2.462,27.866,9.554L554.902,248.617z"/>
				<path id="Shape_10_" d="M598.907,210.074c0,12.315-18.769,12.315-18.769,0C580.106,197.925,598.907,197.925,598.907,210.074z
					 M581.891,230.81v71.696h15.099V230.81H581.891z"/>
				<path id="Path_9_" d="M663.697,248.617c-5.725-5.227-11.891-6.657-19.064-6.657c-9.236-0.134-15.404,2.896-15.404,8.554
					c0.139,5.924,6.473,8.254,15.703,9.119c13.343,1.166,30.794,4.062,30.665,22.467c-0.14,13.313-12.029,22.601-30.798,22.601
					c-11.724,0-23.453-2.595-32.988-13.18l7.919-10.586c6.74,7.39,16.877,10.42,25.374,10.586c7.174,0,15.261-2.598,15.395-9.287
					c0.138-6.391-5.996-8.853-16.711-9.851c-13.643-1.299-29.313-5.659-29.48-21.436c0-15.778,16.577-21.735,30.052-21.735
					c11.155,0,19.811,2.462,27.862,9.554L663.697,248.617z"/>
			</g>
		</g>
		<g>
			<g id="Path_10_" transform="translate(12.638298, 0.000000)">
				
					<linearGradient id="SVGID_1_" gradientUnits="userSpaceOnUse" x1="-81.2726" y1="697.3486" x2="-86.0065" y2="697.3486" gradientTransform="matrix(17.5436 0 0 -21.5574 1500.66 15264.2275)">
					<stop  offset="0" style="stop-color:#9055A2"/>
					<stop  offset="0.1862" style="stop-color:#9D4D98"/>
					<stop  offset="0.5455" style="stop-color:#BB3182"/>
					<stop  offset="0.6917" style="stop-color:#C81A78"/>
				</linearGradient>
				<path fill="url(#SVGID_1_)" d="M74.849,255.866L2.958,180.22c-14.426,13.994-14.926,37.136-1.131,51.765l47.96,50.285"/>
				
					<linearGradient id="SVGID_2_" gradientUnits="userSpaceOnUse" x1="-86.67" y1="680.9688" x2="-84.6783" y2="679.0404" gradientTransform="matrix(8.9732 0 0 -9.3789 826.6796 6641.8994)">
					<stop  offset="0" style="stop-color:#FFFFFF;stop-opacity:0"/>
					<stop  offset="0.2437" style="stop-color:#C0C0C0;stop-opacity:0.2437"/>
					<stop  offset="1" style="stop-color:#000000"/>
				</linearGradient>
				<path opacity="0.64" fill="url(#SVGID_2_)" enable-background="new    " d="M57.93,237.872l16.919,17.995L49.822,282.27
					L32.37,263.771C40.88,255.126,49.389,246.517,57.93,237.872z"/>
				<path fill="#D61360" d="M8.075,326.232l66.774-70.366c14.689,15.54,14.424,40.732-0.598,55.972l-39.953,40.395
					c-7.179,7.262-18.778,7.262-25.958,0C1.261,345.066,1.162,333.527,8.075,326.232z"/>
			</g>
			<g id="Path_11_" transform="translate(0.000000, 16.342105)">
				
					<linearGradient id="SVGID_3_" gradientUnits="userSpaceOnUse" x1="-76.1797" y1="674.2477" x2="-71.4458" y2="674.2477" gradientTransform="matrix(16.3079 0 0 -20.3139 1198.5945 14067.9922)">
					<stop  offset="0" style="stop-color:#0B9DD4"/>
					<stop  offset="0.8475" style="stop-color:#A4CE49"/>
				</linearGradient>
				<path fill="url(#SVGID_3_)" d="M-43.734,349.679l66.042,69.759c14.426-13.993,14.925-37.136,1.13-51.767l-42.144-44.397"/>
				
					<linearGradient id="SVGID_4_" gradientUnits="userSpaceOnUse" x1="-80.8013" y1="655.0163" x2="-82.793" y2="656.9446" gradientTransform="matrix(8.9732 0 0 -9.3789 707.1695 6493.7778)">
					<stop  offset="0" style="stop-color:#FFFFFF;stop-opacity:0"/>
					<stop  offset="0.2437" style="stop-color:#C0C0C0;stop-opacity:0.2437"/>
					<stop  offset="1" style="stop-color:#000000"/>
				</linearGradient>
				<path opacity="0.64" fill="url(#SVGID_4_)" enable-background="new    " d="M-26.817,367.672l-16.917-17.992l25.028-26.405
					l17.448,18.501C-9.765,350.42-18.308,359.031-26.817,367.672z"/>
				
					<linearGradient id="SVGID_5_" gradientUnits="userSpaceOnUse" x1="-76.1631" y1="676.4802" x2="-70.4449" y2="681.2159" gradientTransform="matrix(18.3184 0 0 -22.3834 1331.0043 15484.5752)">
					<stop  offset="0" style="stop-color:#A7DEEE"/>
					<stop  offset="1" style="stop-color:#0B9DD4"/>
				</linearGradient>
				<path fill="url(#SVGID_5_)" d="M-43.135,293.711l44.04-44.566c7.144-7.232,18.745-7.232,25.858,0
					c7.047,7.131,7.146,18.632,0.266,25.932l-70.794,74.604C-58.458,334.105-58.16,308.948-43.135,293.711z"/>
			</g>
		</g>
	</g>
</g>
</svg>
